<svg version="1.0" xmlns="http://www.w3.org/2000/svg"
 width="479.000000pt" height="197.000000pt" viewBox="0 0 479.000000 197.000000"
 preserveAspectRatio="xMidYMid meet">
<g transform="translate(0.000000,197.000000) scale(0.100000,-0.100000)"
fill="#000000" stroke="none">
<path d="M860 1171 c0 -237 2 -270 16 -275 9 -3 671 -6 1471 -6 800 0 1459 -2
1464 -5 5 -4 9 -113 9 -255 0 -213 2 -249 14 -244 13 5 15 47 13 267 l-2 262
-1482 3 -1483 2 0 260 c0 167 -4 260 -10 260 -6 0 -10 -96 -10 -269z" fill="#012B83" stroke="#012B83"/>
<path d="M1158 1414 c-5 -4 -8 -81 -8 -171 l0 -163 104 0 105 0 30 37 31 38 0
-38 0 -37 116 0 115 0 -3 43 -3 42 -62 3 -63 3 0 124 0 125 -50 0 -50 0 0
-112 0 -112 -29 34 c-26 31 -27 37 -15 55 20 28 17 79 -5 106 -17 22 -29 24
-113 27 -51 2 -96 0 -100 -4z m140 -101 c3 -22 -28 -40 -48 -28 -12 7 -13 38
-3 49 15 14 48 1 51 -21z m3 -103 c26 -15 24 -38 -5 -52 -33 -14 -56 -4 -56
25 0 38 22 48 61 27z" />
<path d="M1660 1298 c0 -141 12 -177 70 -216 29 -20 44 -23 88 -20 61 5 99 29
124 79 14 27 18 60 18 157 l0 123 -47 -3 -48 -3 -3 -119 c-1 -67 -7 -126 -14
-133 -16 -20 -66 -16 -78 6 -5 11 -10 72 -10 135 l0 116 -50 0 -50 0 0 -122z"/>
<path d="M1974 1407 c-2 -7 -3 -82 -2 -167 l3 -155 42 -3 42 -3 3 58 3 58 53
3 52 3 0 -60 0 -61 45 0 45 0 0 171 0 170 -42 -3 -43 -3 -3 -62 -3 -63 -54 0
-55 0 0 65 0 65 -40 0 c-24 0 -43 -5 -46 -13z" />
<path d="M2280 1250 l0 -170 110 0 110 0 0 35 0 35 -66 0 -65 0 3 33 c3 31 5
32 51 35 42 3 47 6 47 27 0 21 -5 24 -47 27 -48 3 -48 3 -51 41 l-3 37 65 0
66 0 0 35 0 35 -110 0 -110 0 0 -170z" />
<path d="M2623 1368 c-25 -61 -87 -232 -98 -265 -6 -21 -3 -23 38 -23 41 0 45
2 53 33 9 31 11 32 64 32 53 0 55 -1 64 -32 l9 -33 163 0 164 0 0 45 0 45 -65
0 -65 0 0 125 0 125 -45 0 -45 0 0 -159 c0 -88 -4 -162 -9 -165 -10 -6 -9 -7
-79 184 l-49 135 -39 3 c-40 3 -40 2 -61 -50z m82 -114 c8 -20 15 -38 15 -40
0 -7 -59 -4 -63 4 -5 8 20 72 28 72 3 0 12 -16 20 -36z" />
<path d="M3040 1385 c0 -34 1 -35 40 -35 l40 0 0 -135 0 -135 45 0 44 0 3 133
c3 124 4 132 23 132 19 0 20 -8 23 -132 l3 -133 44 0 45 0 0 61 0 60 53 -3 52
-3 3 -57 3 -58 45 0 44 0 -2 168 -3 167 -42 3 -43 3 0 -65 0 -66 -55 0 -54 0
-3 63 -3 62 -152 3 -153 3 0 -36z" />
<path d="M3010 731 c-52 -28 -73 -62 -78 -129 -8 -115 63 -190 170 -180 84 9
139 65 145 150 6 67 -26 132 -77 159 -44 24 -116 24 -160 0z m125 -91 c42 -46
11 -130 -47 -130 -39 0 -68 32 -68 75 0 66 74 101 115 55z"   />
<path d="M1220 570 l0 -160 40 0 40 0 0 80 c0 44 3 80 6 80 7 0 32 -30 86
-103 41 -55 45 -58 83 -55 l40 3 3 158 3 157 -46 0 -45 0 0 -80 c0 -44 -4 -80
-8 -80 -5 0 -35 36 -67 80 -56 76 -61 80 -97 80 l-38 0 0 -160z" />
<path d="M1554 684 c-9 -64 0 -184 17 -218 44 -90 181 -99 240 -16 15 20 19
49 21 150 l3 125 -41 3 -42 3 -4 -116 c-3 -101 -6 -119 -23 -131 -24 -18 -40
-18 -59 2 -12 12 -16 38 -16 114 0 124 -2 130 -50 130 -38 0 -39 -1 -46 -46z"/>
<path d="M1852 698 c3 -30 6 -33 41 -36 20 -2 37 -9 38 -15 0 -7 0 -51 -1 -98
-2 -132 8 -151 68 -141 21 4 22 8 22 128 l0 123 38 3 c34 3 37 6 37 33 l0 30
-123 3 -123 3 3 -33z" />
<path d="M2122 568 l3 -162 35 -1 c35 0 35 0 38 48 2 26 7 47 12 47 7 0 53
-62 65 -87 4 -7 87 -8 91 -1 3 4 -7 25 -21 45 -30 45 -31 57 -5 85 23 24 28
105 9 140 -17 31 -71 48 -154 48 l-75 0 2 -162z m137 68 c16 -19 4 -43 -24
-49 -30 -5 -35 -1 -35 35 0 23 4 28 24 28 13 0 29 -6 35 -14z"/>
<path d="M2410 570 l0 -161 43 3 42 3 0 155 0 155 -42 3 -43 3 0 -161z" />
<path d="M2530 701 c0 -27 3 -30 38 -33 l37 -3 3 -127 3 -128 39 0 39 0 3 128
3 127 43 3 c40 3 43 5 40 30 l-3 27 -122 3 -123 3 0 -30z"/>
<path d="M2810 570 l0 -160 40 0 c31 0 40 4 40 18 2 72 2 187 1 240 l-1 62
-40 0 -40 0 0 -160z" />
<path d="M3279 703 c0 -16 -1 -86 -1 -158 l-1 -130 41 -3 42 -3 0 80 c0 45 4
81 8 81 4 0 34 -36 67 -80 58 -80 59 -81 99 -78 l41 3 0 155 0 155 -40 0 -40
0 -3 -77 c-2 -43 -6 -78 -10 -78 -4 1 -34 37 -67 80 -56 75 -62 80 -97 80 -35
0 -38 -3 -39 -27z" />
</g>
</svg>
